{"title":"Fair.Game.2010.DVDSCR.XViD.AC3-T0XiC-iNK","uid":6132650,"size":1486788097,"categoryP":"video","categoryS":"movies","magnet":"?xt=urn:btih:a5115705f1872408f310e828634bc53c267c055a&amp;dn=Fair.Game.2010.DVDSCR.XViD.AC3-T0XiC-iNK&amp;tr=udp%3A%2F%2Ftracker.openbittorrent.com%3A80&amp;tr=udp%3A%2F%2Fopen.demonii.com%3A1337&amp;tr=udp%3A%2F%2Ftracker.coppersurfer.tk%3A6969&amp;tr=udp%3A%2F%2Fexodus.desync.com%3A6969","seeders":0,"leechers":4,"uploader":"TvTeam","files":5,"time":1296188967,"description":". \n  &lt;a href=&quot;\nhttp://www.torrentday.com/&quot; rel=&quot;nofollow&quot; target=&quot;_NEW&quot;&gt;\nhttp://www.torrentday.com/&lt;/a&gt;        :     The Hottest Private Tracker On The Net!!!\n &lt;a href=&quot;\nhttp://www.torrentday.com&quot; rel=&quot;nofollow&quot; target=&quot;_NEW&quot;&gt;\nhttp://www.torrentday.com&lt;/a&gt;          :     Once &amp; For all ;)\n\n\n               www . TorrentDay . Com \n\n(((((((((((((= Enjoy No RAR releases =))))))))))))))))))))\n\n\n...................................NFO:....................................\n\n.[img]http://thedoubleg.com/wp-content/uploads/2010/12/fair-game-movie-poster.jpg[/img]\n\n::::::::::::::Enjoy:Another:Release:From:T0XiC::::::::::::::\n\nFile:: Fair.Game.2010.DVDSCR.XViD.AC3-T0XiC-iNK\nVideo Source::.. cheers bro ;)\nAudio Source:: ....cheers bro ;)\nLanguage::English\nIMDB::http://www.imdb.com/title/tt0977855/\n\nPlame's status as a CIA agent was revealed by White House officials allegedly out to discredit her husband..\n\nSpecs::\n\nGeneral\n\nFormat                           : AVI\nFormat/Info                      : Audio Video Interleave\nFile size                        : 1.37 GiB\nDuration                         : 1h 47mn\nOverall bit rate                 : 1 830 Kbps\nWriting application              : VirtualDubMod 1.5.10.2 (build 2542/release)\nWriting library                  : VirtualDub build 32661/release\n\nVideo\nID                               : 0\nFormat                           : MPEG-4 Visual\nFormat profile                   : Advanced Simple@L5\nFormat settings, BVOP            : Yes\nFormat settings, QPel            : No\nFormat settings, GMC             : No warppoints\nFormat settings, Matrix          : Default (MPEG)\nCodec ID                         : XVID\nCodec ID/Hint                    : XviD\nDuration                         : 1h 47mn\nBit rate                         : 1 372 Kbps\nWidth                            : 720 pixels\nHeight                           : 304 pixels\nDisplay aspect ratio             : 2.35:1\nFrame rate                       : 23.976 fps\nColor space                      : YUV\nChroma subsampling               : 4:2:0\nBit depth                        : 8 bits\nScan type                        : Progressive\nBits/(Pixel*Frame)               : 0.262\nStream size                      : 1.03 GiB (75%)\nWriting library                  : XviD 1.2.0.dev47 (UTC 2006-11-01)\n\nAudio\nID                               : 1\nFormat                           : AC-3\nFormat/Info                      : Audio Coding 3\nMode extension                   : CM (complete main)\nCodec ID                         : 2000\nDuration                         : 1h 47mn\nBit rate mode                    : Constant\nBit rate                         : 448 Kbps\nChannel(s)                       : 6 channels\nChannel positions                : Front: L C R, Side: L R, LFE\nSampling rate                    : 48.0 KHz\nBit depth                        : 16 bits\nStream size                      : 344 MiB (24%)\nAlignment                        : Split accross interleaves\nInterleave, duration             : 42 ms (1.00 video frame)\nInterleave, preload duration     : 500 ms\n\n\n\n\n\n\nNOTES:: As you can tell its not the best quality screener ever, but its still very watchable imo... if you can't wait, we will probably be doing a v2 sometime in the near future...\nmake sure you check sample, enjoy :)\n\n\n::Why Complain? Whats Free Is Free::\n\n::We are always looking for friends with unreleased DVD's, Screeners, R5's, Audio, Cams, Silvers,\n...and any other good sources you may have to offer - contact us: &lt;a class=&quot;__cf_email__&quot; href=&quot;/cdn-cgi/l/email-protection&quot; data-cfemail=&quot;3743074f5e5445525b5256445244775f42445f5a565e5b1954585a&quot;&gt;[email&amp;#160;protected]&lt;/a&gt;&lt;script cf-hash='f9e31' type=&quot;text/javascript&quot;&gt;\n/* &lt;![CDATA[ */!function(){try{var t=&quot;currentScript&quot;in document?document.currentScript:function(){for(var t=document.getElementsByTagName(&quot;script&quot;),e=t.length;e--;)if(t[e].getAttribute(&quot;cf-hash&quot;))return t[e]}();if(t&amp;&amp;t.previousSibling){var e,r,n,i,c=t.previousSibling,a=c.getAttribute(&quot;data-cfemail&quot;);if(a){for(e=&quot;&quot;,r=parseInt(a.substr(0,2),16),n=2;a.length-n;n+=2)i=parseInt(a.substr(n,2),16)^r,e+=String.fromCharCode(i);e=document.createTextNode(e),c.parentNode.replaceChild(e,c)}}}catch(u){}}();/* ]]&gt; */&lt;/script&gt;\n\n::::::::::::::::::::::::::::::::::::   Respect To   :::::::::::::::::::::::::::::::::::::\n::IMAGiNE,FLAWL3SS,Hive-CM8,DiGiTALiNK,Tranz,Vik,OneTwo,Joey,bob,&amp; our friends on utn and PA::\n                       &quot;and to all of you who support us, Thank-You&quot;\n\n[img]http://noob.hu/2011/01/28/bscap0025.jpg[/img]\n[img]http://noob.hu/2011/01/28/bscap0026.jpg[/img]\n[img]http://noob.hu/2011/01/28/bscap0027.jpg[/img]","torrent":{"xt":"urn:btih:a5115705f1872408f310e828634bc53c267c055a","amp;dn":"Fair.Game.2010.DVDSCR.XViD.AC3-T0XiC-iNK","amp;tr":["udp%3A%2F%2Ftracker.openbittorrent.com%3A80","udp%3A%2F%2Fopen.demonii.com%3A1337","udp%3A%2F%2Ftracker.coppersurfer.tk%3A6969","udp%3A%2F%2Fexodus.desync.com%3A6969"],"infoHash":"a5115705f1872408f310e828634bc53c267c055a","infoHashBuffer":{"type":"Buffer","data":[165,17,87,5,241,135,36,8,243,16,232,40,99,75,197,60,38,124,5,90]},"announce":[],"urlList":[]}}